HIERARCHY
ROOT hip
{
  OFFSET 60.1938 85.3094 -126.435
  CHANNELS 6 Xposition Yposition Zposition Zrotation Xrotation Yrotation
  JOINT abdomen
  {
    OFFSET 0 20.6881 -0.73152
    CHANNELS 3 Zrotation Xrotation Yrotation
    JOINT chest
    {
      OFFSET 0 11.7043 -0.48768
      CHANNELS 3 Zrotation Xrotation Yrotation
      JOINT neck
      {
        OFFSET 0 22.1894 -2.19456
        CHANNELS 3 Zrotation Xrotation Yrotation
        JOINT head
        {
          OFFSET -0.24384 7.07133 1.2192
          CHANNELS 3 Zrotation Xrotation Yrotation
          JOINT leftEye
          {
            OFFSET 4.14528 8.04674 8.04672
            CHANNELS 3 Zrotation Xrotation Yrotation
            End Site
            {
              OFFSET 1 0 0
            }
          }
          JOINT rightEye
          {
            OFFSET -3.6576 8.04674 8.04672
            CHANNELS 3 Zrotation Xrotation Yrotation
            End Site
            {
              OFFSET 1 0 0
            }
          }
        }
      }
      JOINT rCollar
      {
        OFFSET -2.68224 19.2634 -4.8768
        CHANNELS 3 Zrotation Xrotation Yrotation
        JOINT rShldr
        {
          OFFSET -8.77824 -1.95073 1.46304
          CHANNELS 3 Zrotation Xrotation Yrotation
          JOINT rForeArm
          {
            OFFSET -28.1742 -1.7115 0.48768
            CHANNELS 3 Zrotation Xrotation Yrotation
            JOINT rHand
            {
              OFFSET -22.5879 0.773209 7.07136
              CHANNELS 3 Zrotation Xrotation Yrotation
              JOINT rThumb1
              {
                OFFSET -1.2192 -0.487915 3.41376
                CHANNELS 3 Zrotation Xrotation Yrotation
                JOINT rThumb2
                {
                  OFFSET -3.37035 -0.52449 3.41376
                  CHANNELS 3 Zrotation Xrotation Yrotation
                  End Site
                  {
                    OFFSET -1.78271 -1.18214 1.43049
                  }
                }
              }
              JOINT rIndex1
              {
                OFFSET -7.75947 0.938293 5.60832
                CHANNELS 3 Zrotation Xrotation Yrotation
                JOINT rIndex2
                {
                  OFFSET -2.54057 -0.884171 1.56538
                  CHANNELS 3 Zrotation Xrotation Yrotation
                  End Site
                  {
                    OFFSET -1.62519 -0.234802 1.16502
                  }
                }
              }
              JOINT rMid1
              {
                OFFSET -8.24714 1.18213 3.41376
                CHANNELS 3 Zrotation Xrotation Yrotation
                JOINT rMid2
                {
                  OFFSET -3.10165 -0.590103 1.0647
                  CHANNELS 3 Zrotation Xrotation Yrotation
                  End Site
                  {
                    OFFSET -2.48547 -0.328903 0.83742
                  }
                }
              }
              JOINT rRing1
              {
                OFFSET -8.82822 0.546677 1.51678
                CHANNELS 3 Zrotation Xrotation Yrotation
                JOINT rRing2
                {
                  OFFSET -2.60934 -0.819778 -0.0198488
                  CHANNELS 3 Zrotation Xrotation Yrotation
                  End Site
                  {
                    OFFSET -2.33842 -0.294052 0.168128
                  }
                }
              }
              JOINT rPinky1
              {
                OFFSET -8.27202 -0.0477905 -0.4584
                CHANNELS 3 Zrotation Xrotation Yrotation
                JOINT rPinky2
                {
                  OFFSET -1.82734 -0.647385 -0.700984
                  CHANNELS 3 Zrotation Xrotation Yrotation
                  End Site
                  {
                    OFFSET -1.69225 -0.51767 -0.607171
                  }
                }
              }
            }
          }
        }
      }
      JOINT lCollar
      {
        OFFSET 2.68224 19.2634 -4.8768
        CHANNELS 3 Zrotation Xrotation Yrotation
        JOINT lShldr
        {
          OFFSET 8.77824 -1.95073 1.46304
          CHANNELS 3 Zrotation Xrotation Yrotation
          JOINT lForeArm
          {
            OFFSET 28.1742 -1.7115 0.48768
            CHANNELS 3 Zrotation Xrotation Yrotation
            JOINT lHand
            {
              OFFSET 22.5879 0.773209 7.07136
              CHANNELS 3 Zrotation Xrotation Yrotation
              JOINT lThumb1
              {
                OFFSET 1.2192 -0.487915 3.41376
                CHANNELS 3 Zrotation Xrotation Yrotation
                JOINT lThumb2
                {
                  OFFSET 3.37035 -0.52449 3.41376
                  CHANNELS 3 Zrotation Xrotation Yrotation
                  End Site
                  {
                    OFFSET 1.78271 -1.18214 1.43049
                  }
                }
              }
              JOINT lIndex1
              {
                OFFSET 7.75947 0.938293 5.60832
                CHANNELS 3 Zrotation Xrotation Yrotation
                JOINT lIndex2
                {
                  OFFSET 2.54057 -0.884171 1.56538
                  CHANNELS 3 Zrotation Xrotation Yrotation
                  End Site
                  {
                    OFFSET 1.62519 -0.234802 1.16502
                  }
                }
              }
              JOINT lMid1
              {
                OFFSET 8.24714 1.18213 3.41376
                CHANNELS 3 Zrotation Xrotation Yrotation
                JOINT lMid2
                {
                  OFFSET 3.10165 -0.590103 1.0647
                  CHANNELS 3 Zrotation Xrotation Yrotation
                  End Site
                  {
                    OFFSET 2.48547 -0.328903 0.83742
                  }
                }
              }
              JOINT lRing1
              {
                OFFSET 8.82822 0.546677 1.51678
                CHANNELS 3 Zrotation Xrotation Yrotation
                JOINT lRing2
                {
                  OFFSET 2.60934 -0.819778 -0.0198488
                  CHANNELS 3 Zrotation Xrotation Yrotation
                  End Site
                  {
                    OFFSET 2.33842 -0.294052 0.168128
                  }
                }
              }
              JOINT lPinky1
              {
                OFFSET 8.27202 -0.0477905 -0.4584
                CHANNELS 3 Zrotation Xrotation Yrotation
                JOINT lPinky2
                {
                  OFFSET 1.82734 -0.647385 -0.700984
                  CHANNELS 3 Zrotation Xrotation Yrotation
                  End Site
                  {
                    OFFSET 1.69225 -0.51767 -0.607171
                  }
                }
              }
            }
          }
        }
      }
    }
  }
  JOINT rButtock
  {
    OFFSET -8.77824 4.35084 1.2192
    CHANNELS 3 Zrotation Xrotation Yrotation
    JOINT rThigh
    {
      OFFSET 0 -1.70687 -2.19456
      CHANNELS 3 Zrotation Xrotation Yrotation
      JOINT rShin
      {
        OFFSET 0 -36.8199 0.73152
        CHANNELS 3 Zrotation Xrotation Yrotation
        JOINT rFoot
        {
          OFFSET 0.73152 -45.1104 -5.12064
          CHANNELS 3 Zrotation Xrotation Yrotation
          End Site
          {
            OFFSET -1.1221 -3.69964 12.103
          }
        }
      }
    }
  }
  JOINT lButtock
  {
    OFFSET 8.77824 4.35084 1.2192
    CHANNELS 3 Zrotation Xrotation Yrotation
    JOINT lThigh
    {
      OFFSET 0 -1.70687 -2.19456
      CHANNELS 3 Zrotation Xrotation Yrotation
      JOINT lShin
      {
        OFFSET 0 -36.8199 0.73152
        CHANNELS 3 Zrotation Xrotation Yrotation
        JOINT lFoot
        {
          OFFSET -0.73152 -45.1104 -5.12064
          CHANNELS 3 Zrotation Xrotation Yrotation
          End Site
          {
            OFFSET 1.1221 -3.69964 12.103
          }
        }
      }
    }
  }
}
MOTION
Frames:	4
Frame Time:	0.0416667
60.1938 85.3094 -126.435 0 0 -0 1.0369 -0.00525962 0.0288007 0.286391 -0.00602467 0.04962 -1.94183e-14 7.96692e-16 3.23025e-16 -5.91761e-14 9.54322e-15 9.06955e-16 2.47553e-16 -4.65902e-18 -1.2424e-17 2.47553e-16 -4.65902e-18 -1.2424e-17 -9.67785e-15 2.95071e-17 2.98177e-16 -2.06076e-13 2.62458e-16 3.35449e-15 -3.56413e-12 1.08377e-12 1.04958e-13 -4.07818e-11 -9.59731e-13 5.12082e-13 -9.61969e-11 2.73765e-13 1.36447e-12 -1.66141e-10 4.77085e-13 2.34567e-12 -9.61923e-11 2.70743e-13 1.35811e-12 7.73091 5.47488 0.417314 -9.61981e-11 2.73427e-13 1.36447e-12 2.90554 0.965183 0.102902 -9.61886e-11 2.74321e-13 1.36129e-12 10.2786 0.731801 0.0259123 -9.62041e-11 2.76707e-13 1.36446e-12 2.22167 -0.733487 -0.20892 -9.87669e-15 2.79541e-17 -0 -2.0886e-13 3.86698e-16 1.76421e-15 -3.56473e-12 -1.04302e-12 7.31652e-14 -4.07725e-11 1.17842e-12 5.53417e-13 -9.61757e-11 2.96548e-13 1.36445e-12 -1.66079e-10 5.15248e-13 2.36395e-12 -9.61788e-11 2.97778e-13 1.37399e-12 -7.73091 5.47488 -0.417314 -9.61747e-11 2.96386e-13 1.36445e-12 -2.90554 0.965183 -0.102902 -9.61832e-11 2.96486e-13 1.36524e-12 -10.2786 0.731801 -0.0259123 -9.61701e-11 2.99766e-13 1.3549e-12 -2.22167 -0.733487 0.20892 -2.03217e-16 0 -3.88251e-19 1.25394 -5.58399 -0.112097 0.000560707 4.56015 0.0307877 -0.477082 1.0232 0.0749376 2.03217e-16 0 3.88251e-19 0.326736 -1.91893 0.0116292 0.00902231 -2.07859 0.0743737 0.458788 3.99677 -0.13241 
60.4549 83.5497 -123.663 2.73134 7.48106 -6.79682 -7.35311 2.43701 3.10903 1.37708 -5.12304 0.905434 5.99549 10.1212 7.88098 -12.2951 -19.2255 12.9404 -3.97569e-16 -1.59028e-15 -0 -3.97569e-16 -1.59028e-15 -0 -9.93923e-15 -1.59028e-15 -0 91.2141 44.5126 -15.6722 -20.0597 -12.5546 39.6813 -0.234801 -13.2533 -1.89915 -9.61943e-11 2.73528e-13 1.3581e-12 -1.66144e-10 4.73903e-13 2.34725e-12 -9.61911e-11 2.73528e-13 1.35492e-12 7.73091 5.47488 0.417314 -9.61959e-11 2.73528e-13 1.3581e-12 2.90554 0.965183 0.102902 -9.61879e-11 2.76708e-13 1.35492e-12 10.2786 0.731801 0.0259123 -9.62022e-11 2.83069e-13 1.36128e-12 2.22167 -0.733487 -0.20892 -9.91439e-15 -1.59028e-15 -3.97569e-16 -84.4077 38.4774 11.6798 16.3651 -8.71365 -30.863 0.417504 -17.5176 2.54772 -9.61752e-11 2.98972e-13 1.36446e-12 -1.66079e-10 5.08889e-13 2.36633e-12 -9.61784e-11 2.98972e-13 1.374e-12 -7.73091 5.47488 -0.417314 -9.61744e-11 2.98972e-13 1.36446e-12 -2.90554 0.965183 -0.102902 -9.61824e-11 2.98972e-13 1.36446e-12 -10.2786 0.731801 -0.0259123 -9.61704e-11 3.02153e-13 1.3581e-12 -2.22167 -0.733487 0.20892 -1.09332e-15 0 1.59028e-15 -0.360296 0.142854 -4.31806 -0.163256 33.7953 0.891044 -1.62822 1.74127 -15.1347 -2.98177e-16 0 2.38542e-15 -2.26612 -41.4877 -1.40993 0.32468 38.6009 -0.782791 1.92077 -6.25471 8.24141 
61.4048 83.5174 -120.587 3.73027 7.51465 -6.42521 -9.65316 2.37486 2.5658 1.46076 -5.02033 0.689327 6.00768 9.73986 7.15383 -12.2959 -17.4126 11.5767 -5.96354e-16 -3.97569e-16 -3.18055e-15 -5.96354e-16 -3.97569e-16 -3.18055e-15 -9.69075e-15 7.95139e-16 7.95139e-16 84.4082 41.9701 -14.6626 -18.5855 -11.3308 35.3463 -0.141441 -10.6742 -1.51786 -9.61991e-11 2.76708e-13 1.36128e-12 -1.66144e-10 4.73903e-13 2.34407e-12 -9.61927e-11 2.76708e-13 1.3581e-12 7.73091 5.47488 0.417314 -9.61991e-11 2.73528e-13 1.36128e-12 2.90554 0.965183 0.102902 -9.61879e-11 2.79889e-13 1.36128e-12 10.2786 0.731801 0.0259123 -9.62038e-11 2.79889e-13 1.36128e-12 2.22167 -0.733487 -0.20892 -1.04859e-14 7.95139e-16 7.95139e-16 -77.3694 36.0397 10.3558 15.3026 -8.05484 -28.2141 0.30397 -15.5987 2.24865 -9.61832e-11 2.98972e-13 1.36128e-12 -1.66081e-10 5.1843e-13 2.35997e-12 -9.61847e-11 2.95792e-13 1.36764e-12 -7.73091 5.47488 -0.417314 -9.61816e-11 2.98972e-13 1.36128e-12 -2.90554 0.965183 -0.102902 -9.61887e-11 2.92611e-13 1.36764e-12 -10.2786 0.731801 -0.0259123 -9.61784e-11 2.98972e-13 1.35174e-12 -2.22167 -0.733487 0.20892 -1.98785e-16 3.18055e-15 -0 -4.09698 -9.22206 -4.62113 -0.486785 46.1103 0.831768 -0.404562 7.74189 -13.1667 5.96354e-16 3.18055e-15 -0 -5.19744 -36.4234 -1.42778 0.277838 35.4721 -0.407692 1.66625 -7.74404 6.41548 
62.06 83.6256 -117.451 4.3742 7.03713 -5.96903 -11.5225 2.85069 2.73132 1.41405 -4.60947 0.647377 5.60182 9.8191 7.16769 -11.3332 -17.7204 11.7725 -0 0 6.36111e-15 -0 0 6.36111e-15 -1.08835e-14 0 3.97569e-16 84.6854 42.4249 -14.7923 -18.2928 -11.0047 34.6811 -0.106111 -9.24527 -1.31087 -9.61975e-11 2.67167e-13 1.36446e-12 -1.66138e-10 4.77083e-13 2.34407e-12 -9.61927e-11 2.67167e-13 1.35492e-12 7.73091 5.47488 0.417314 -9.61991e-11 2.67167e-13 1.36446e-12 2.90554 0.965183 0.102902 -9.61879e-11 2.67167e-13 1.36128e-12 10.2786 0.731801 0.0259123 -9.62038e-11 2.70347e-13 1.36446e-12 2.22167 -0.733487 -0.20892 -1.08835e-14 0 3.97569e-16 -75.5309 35.1809 8.94944 15.3879 -8.13045 -28.3911 0.31259 -15.6934 2.263 -9.61784e-11 3.05333e-13 1.36446e-12 -1.66077e-10 5.1525e-13 2.35679e-12 -9.61816e-11 3.02153e-13 1.374e-12 -7.73091 5.47488 -0.417314 -9.61768e-11 3.05333e-13 1.36446e-12 -2.90554 0.965183 -0.102902 -9.61847e-11 3.02153e-13 1.36764e-12 -10.2786 0.731801 -0.0259123 -9.61744e-11 3.05333e-13 1.3581e-12 -2.22167 -0.733487 0.20892 2.98177e-16 0 -0 -6.29632 -17.2773 -4.81959 -0.986218 57.8326 1.20762 -0.19021 9.4105 -10.3113 2.98177e-16 0 -0 -7.18643 -33.9091 -1.051 0.285406 35.3381 -0.179121 1.65055 -9.59242 5.92289 
